<svg xmlns="http://www.w3.org/2000/svg" width="27" height="27" viewBox="0 0 27 27"><g><g><path d="M20.634 5.186a1.512 1.512 0 1 0 0 3.024 1.512 1.512 0 0 0 0-3.024z"/></g><g><path d="M13.914 7.125a6.357 6.357 0 0 1 6.35 6.349 6.357 6.357 0 0 1-6.35 6.349 6.356 6.356 0 0 1-6.349-6.35 6.356 6.356 0 0 1 6.35-6.348zm0 10.416a4.072 4.072 0 0 0 4.067-4.067 4.072 4.072 0 0 0-4.067-4.067 4.07 4.07 0 0 0-4.066 4.067 4.071 4.071 0 0 0 4.066 4.067z"/></g><g><path d="M8.662 26.363c-4.27 0-7.744-3.473-7.744-7.743V8.326c0-4.27 3.473-7.743 7.744-7.743h10.292c4.271 0 7.745 3.473 7.745 7.743V18.62c0 4.27-3.474 7.743-7.745 7.743zm0-23.355a5.323 5.323 0 0 0-5.318 5.318V18.62a5.323 5.323 0 0 0 5.318 5.318h10.292a5.324 5.324 0 0 0 5.32-5.318V8.326a5.324 5.324 0 0 0-5.32-5.318z"/></g></g></svg>