<svg xmlns="http://www.w3.org/2000/svg" width="32" height="27" viewBox="0 0 32 27"><g><g><path d="M9.458 16.963C7.77 12.49 6.083 8.018 4.397 3.545c-.208-.553-.205-.554-.794-.554L1.246 2.99C.539 2.988.009 2.469.019 1.789.027 1.112.549.616 1.247.617l3.63-.002c.669 0 1.03.26 1.268.893.387 1.034.785 2.065 1.165 3.102.07.192.164.247.362.247 4.095-.007 8.19-.007 12.285-.007l10.435.002c.93 0 1.47.732 1.196 1.625l-3.18 10.33c-.171.56-.584.876-1.178.877-2.277.004-4.552.002-6.83.002h-7.932c-.056 0-.11.006-.207.012l.235.635c.105.277.219.55.31.833.052.159.137.203.299.203 1.795-.005 3.589-.003 5.385-.002 2.365 0 4.728-.01 7.092.004 1.814.01 3.292 1.384 3.43 3.152.143 1.86-1.073 3.447-2.884 3.762-2.093.363-4.057-1.395-3.962-3.556.015-.317.08-.631.124-.966h-6.941c.328 1.2.155 2.315-.633 3.298a3.292 3.292 0 0 1-1.975 1.194c-1.6.324-3.187-.536-3.83-2.055-.582-1.38-.293-3.368 1.595-4.466-.353-.93-.7-1.851-1.048-2.771zm-1.12-9.726c.003.048-.002.073.006.094.425 1.13.849 2.262 1.283 3.389.026.067.149.139.228.139 1.689.009 3.379.008 5.068.007.06 0 .12-.012.197-.02l-.28-3.61zm14.469 3.63c1.57-.001 3.14-.006 4.71.003.199 0 .279-.062.334-.246.318-1.066.648-2.128.973-3.192.018-.06.027-.12.042-.188h-6.052l-.284 3.623zm-6.78-3.628l.28 3.61c.072.008.103.014.135.014 1.578.002 3.156 0 4.734.008.153 0 .183-.065.192-.2.075-1.014.156-2.028.234-3.042.009-.125.012-.25.018-.39zm.375 4.839l.246 3.21h4.356l.25-3.21zm-6.241.002c.01.058.012.098.026.134.366.974.736 1.946 1.097 2.922.053.142.138.167.274.167 1.225-.005 2.45-.002 3.676-.003.07-.001.138-.011.227-.018l-.247-3.202zm12.277-.002l-.245 3.209c.075.006.114.013.153.013 1.282 0 2.564-.002 3.847.005.167 0 .236-.055.283-.213.263-.882.539-1.761.808-2.641.036-.118.066-.24.102-.373zm-10.355 9.667a1.1 1.1 0 0 0-1.091 1.083c-.007.607.486 1.114 1.082 1.113a1.095 1.095 0 0 0 1.078-1.093c.004-.597-.484-1.1-1.07-1.103zm13.5-.001a1.107 1.107 0 0 0-1.074 1.102 1.103 1.103 0 0 0 1.104 1.094c.588-.01 1.066-.511 1.059-1.111-.007-.6-.506-1.097-1.088-1.085z"/></g></g></svg>